<?xml version="1.0" standalone="no"?>
<!DOCTYPE svg PUBLIC "-//W3C//DTD SVG 20010904//EN"
 "http://www.w3.org/TR/2001/REC-SVG-20010904/DTD/svg10.dtd">
<svg version="1.0" xmlns="http://www.w3.org/2000/svg"
 width="512.000000pt" height="512.000000pt" viewBox="0 0 512.000000 512.000000"
 preserveAspectRatio="xMidYMid meet">
<metadata>
Created by potrace 1.14, written by Peter Selinger 2001-2017
</metadata>
<g transform="translate(0.000000,512.000000) scale(0.100000,-0.100000)"
fill="#000000" stroke="none">
<path d="M2099 4553 c-16 -7 -33 -13 -37 -14 -4 0 -23 -9 -43 -20 -20 -10 -39
-16 -41 -14 -2 3 -36 8 -74 11 -38 4 -71 9 -74 13 -7 8 -60 9 -54 0 2 -4 -7
-6 -20 -6 -33 0 -96 -23 -96 -34 0 -6 -4 -8 -8 -5 -5 3 -20 -5 -33 -17 -13
-12 -27 -22 -31 -22 -5 0 -8 -3 -8 -8 0 -4 -11 -19 -24 -35 -23 -24 -31 -27
-88 -25 -35 0 -67 -2 -73 -5 -5 -4 -12 -7 -15 -7 -25 -3 -87 -31 -93 -42 -5
-7 -12 -11 -16 -8 -9 5 -71 -59 -71 -72 0 -13 -88 -102 -94 -96 -3 3 -11 1
-18 -4 -7 -6 -30 -16 -52 -23 -33 -11 -77 -47 -125 -106 -8 -9 -16 -38 -19
-63 -4 -49 -17 -81 -32 -81 -26 0 -92 -70 -121 -129 -27 -55 -39 -193 -19
-240 9 -24 9 -34 -4 -59 -8 -16 -12 -32 -9 -36 4 -3 2 -6 -3 -6 -13 0 -14
-102 -2 -117 6 -7 8 -20 4 -28 -3 -8 -2 -15 3 -15 4 0 20 -19 34 -41 24 -36
29 -68 17 -99 -1 -3 -2 -8 -1 -12 0 -5 -5 -8 -11 -8 -9 0 -8 -4 2 -10 11 -7
11 -10 2 -10 -10 0 -10 -5 -1 -22 7 -13 12 -24 11 -26 -6 -8 23 -93 37 -109
18 -20 43 -69 48 -95 4 -24 43 -67 74 -84 17 -8 27 -22 27 -36 0 -13 1 -27 2
-33 6 -25 -1 -44 -18 -49 -15 -5 -54 -57 -58 -78 -1 -5 -3 -11 -4 -15 -4 -14
-2 -77 4 -103 8 -40 36 -144 43 -160 3 -8 7 -17 8 -20 4 -11 18 -47 35 -87 10
-23 15 -45 12 -49 -4 -4 -2 -4 4 -1 9 5 32 -40 34 -68 1 -5 8 -20 16 -32 8
-13 12 -23 9 -23 -3 0 3 -10 15 -22 11 -12 20 -26 20 -31 0 -6 14 -23 31 -40
27 -25 36 -28 70 -23 33 5 39 3 41 -11 2 -29 4 -36 22 -75 9 -21 16 -42 16
-48 0 -5 5 -10 10 -10 6 0 10 -5 10 -11 0 -42 156 -218 248 -281 26 -17 49
-34 52 -37 3 -3 17 -12 33 -20 15 -8 27 -18 27 -23 0 -4 5 -8 11 -8 6 0 30
-13 54 -30 24 -16 51 -30 61 -30 10 0 14 -3 11 -7 -11 -11 181 -102 228 -108
11 -1 22 -4 25 -5 3 -1 16 -1 29 0 16 1 21 -2 16 -10 -6 -9 -2 -9 13 -1 27 14
35 14 26 -1 -5 -9 -2 -9 9 1 13 10 17 10 17 1 0 -9 4 -9 17 1 15 12 16 12 8
-1 -7 -12 -6 -13 6 -3 12 10 18 10 29 0 8 -7 11 -8 7 -1 -4 8 2 12 16 11 32
-1 154 13 212 25 28 5 56 10 63 11 6 0 12 4 12 8 0 4 13 6 29 5 17 -1 28 1 25
5 -2 4 18 15 46 24 27 9 50 21 50 26 0 5 5 9 11 9 11 0 128 87 141 105 4 6 8
6 8 2 0 -4 11 3 24 17 13 15 29 26 35 26 7 0 9 4 6 10 -3 5 -2 10 3 10 9 0
142 125 142 134 0 5 90 98 91 94 0 -2 2 -16 4 -33 5 -43 23 -85 36 -85 7 0 9
-3 5 -7 -3 -4 4 -13 16 -20 l23 -12 -22 -1 c-13 0 -23 -5 -23 -11 0 -5 -4 -8
-9 -5 -10 6 -65 -38 -67 -54 -1 -5 -2 -11 -3 -12 -2 -2 -5 -14 -7 -27 -2 -14
-6 -26 -8 -29 -11 -10 20 -80 45 -104 32 -30 36 -46 14 -54 -8 -4 -15 -12 -15
-19 0 -7 -5 -15 -12 -17 -14 -5 -20 -30 -19 -92 0 -43 5 -53 40 -86 22 -21 46
-40 53 -43 10 -5 10 -8 -2 -19 -8 -7 -20 -24 -26 -38 -12 -28 -10 -110 4 -119
5 -3 11 -13 14 -21 6 -15 120 -79 149 -84 7 -1 23 -7 34 -13 11 -5 26 -8 33
-6 6 3 12 0 12 -5 0 -5 12 -12 28 -15 15 -3 39 -8 54 -11 27 -6 82 -15 103
-18 16 -1 212 13 236 17 11 2 47 7 78 11 31 3 58 9 61 13 3 4 30 13 60 20 64
16 175 72 227 116 7 5 19 15 27 22 7 6 17 9 20 6 3 -4 6 0 6 8 0 8 16 31 35
52 19 21 33 43 30 48 -4 5 -2 9 3 9 5 0 22 26 38 57 16 32 34 61 39 65 6 5 5
8 -4 8 -11 0 -11 3 -1 15 7 8 10 22 6 30 -3 9 -2 13 4 10 10 -6 14 28 12 110
-1 66 -13 129 -25 137 -7 4 -9 8 -4 8 4 0 1 13 -8 30 -8 16 -15 33 -15 37 0
17 -12 43 -20 43 -4 0 -15 18 -23 39 -9 22 -21 42 -27 46 -6 3 -20 25 -32 48
-11 23 -29 49 -39 58 -11 9 -19 23 -19 31 0 9 -7 21 -15 28 -8 7 -12 16 -9 21
3 5 1 9 -4 9 -5 0 -20 27 -35 60 -14 33 -21 60 -16 60 6 0 7 6 2 13 -11 16
-11 87 0 87 4 0 6 4 3 9 -3 5 -1 24 5 42 6 19 13 41 16 49 2 8 4 16 4 18 -1 1
10 23 23 50 36 68 52 136 40 169 -10 30 -73 78 -107 81 -59 4 -122 0 -125 -8
-2 -6 -8 -8 -13 -4 -5 3 -9 0 -9 -6 0 -6 -4 -8 -10 -5 -13 8 -113 -91 -135
-135 -10 -19 -23 -38 -29 -42 -7 -5 -6 -8 4 -8 11 -1 10 -4 -4 -15 -11 -8 -17
-15 -14 -15 4 0 3 -13 -2 -30 -6 -21 -5 -30 3 -30 8 0 8 -3 -1 -9 -16 -10 -14
-112 2 -123 7 -5 7 -8 1 -8 -6 0 -9 -23 -8 -51 0 -28 -3 -63 -8 -78 -12 -33
-75 -85 -95 -77 -7 3 -14 1 -14 -4 0 -15 -57 -12 -63 3 -4 9 -6 8 -6 -2 -1
-10 -7 -10 -27 4 -15 9 -23 12 -19 5 5 -9 1 -8 -16 1 -29 16 -37 18 -114 26
-84 9 -195 9 -229 0 l-29 -8 18 28 c19 28 76 139 81 158 2 6 9 30 16 55 7 25
19 50 27 56 8 6 11 16 7 22 -4 7 -2 12 4 12 6 0 9 3 7 7 -2 5 3 22 13 38 13
24 23 29 46 27 79 -8 101 -4 126 21 22 22 49 73 54 102 1 6 8 24 15 40 7 17
13 32 14 35 2 8 24 120 29 145 1 6 5 16 9 23 5 7 3 12 -5 12 -8 0 -9 3 -2 8 5
4 10 24 10 45 -1 22 2 41 5 43 6 3 3 106 -5 149 -14 85 -73 164 -129 172 -29
5 -31 8 -31 58 0 25 -4 45 -9 45 -4 0 -7 6 -5 13 2 7 -9 25 -24 40 l-27 26 44
46 c39 42 43 51 41 91 -2 32 -11 55 -35 84 l-32 40 24 24 c14 14 22 27 19 30
-3 3 1 6 8 6 16 0 8 142 -9 148 -6 2 -11 12 -11 22 0 10 -4 21 -8 24 -5 3 -14
30 -21 60 -7 31 -20 60 -29 66 -9 5 -13 10 -8 10 5 0 -4 12 -20 28 -16 15 -29
31 -30 35 -1 4 -4 33 -7 65 -9 83 -15 105 -29 114 -7 4 -9 8 -5 8 5 0 1 7 -7
16 -9 8 -16 22 -16 30 0 8 -4 14 -9 14 -5 0 -24 16 -42 35 -18 19 -35 32 -37
30 -3 -2 -14 1 -25 7 -12 6 -34 11 -49 10 -17 0 -28 5 -28 13 0 8 -10 17 -22
21 -23 7 -108 90 -102 99 2 3 1 3 -3 0 -3 -3 -17 2 -29 10 -13 8 -31 17 -41
19 -10 1 -25 6 -33 9 -8 3 -38 11 -66 17 -30 7 -56 19 -65 32 -27 39 -92 98
-109 98 -9 0 -20 3 -24 8 -4 4 -12 8 -17 8 -5 1 -11 3 -14 4 -3 1 -9 4 -15 5
-5 1 -12 4 -15 5 -3 1 -9 4 -15 5 -5 1 -11 3 -12 5 -9 6 -50 12 -91 12 -36 1
-52 -4 -66 -21 -17 -20 -20 -20 -54 -6 -68 28 -164 37 -208 18z"/>
</g>
</svg>
